<svg xmlns="http://www.w3.org/2000/svg" width="1200" height="675" viewBox="0 0 1200 675" role="img" aria-label="FieldOps capability overview">
<defs><linearGradient id="g" x1="0" y1="0" x2="1" y2="1"><stop stop-color="#eef5ff"/><stop offset=".55" stop-color="#fff"/><stop offset="1" stop-color="#edf4ff"/></linearGradient><filter id="s"><feDropShadow dx="0" dy="6" stdDeviation="10" flood-color="#16325c" flood-opacity=".15"/></filter></defs>
<style>text{font-family:'Noto Sans KR','Apple SD Gothic Neo','Segoe UI',Arial,sans-serif}.h{fill:#08142d;font-weight:800}.b{fill:#2563eb;font-weight:800}.t{fill:#0f172a;font-weight:700}.m{fill:#64748b}.w{fill:#fff}.card{fill:#fff;stroke:#dbe5f4}.dark{fill:#0b1322;stroke:#1e293b}.line{fill:none;stroke:#3b82f6;stroke-width:3;stroke-linecap:round;stroke-linejoin:round}</style><rect width="1200" height="675" fill="url(#g)"/><text x="600" y="62" text-anchor="middle" class="h" font-size="46">FieldOps Control Plane</text><text x="600" y="94" text-anchor="middle" class="m" font-size="17">프로그램이 하는 일을 한눈에 보여주는 운영 플랫폼 개요</text><rect x="35" y="132" width="360" height="205" rx="18" class="card" filter="url(#s)"/><rect x="53" y="149" width="34" height="34" rx="9" fill="#2563eb"/><text x="70" y="173" text-anchor="middle" class="w" font-size="16" font-weight="800">1</text><text x="100" y="173" class="h" font-size="20">장비 연동</text><text x="55" y="204" class="m" font-size="11">센서 · 펌프 · 밸브 · 카메라</text><g class="b" font-size="11"><text x="73" y="259">SENSOR</text><text x="151" y="259">PUMP</text><text x="222" y="259">VALVE</text><text x="297" y="259">CAMERA</text></g><path d="M73 288H341" stroke="#60a5fa" stroke-width="2" stroke-dasharray="5 5"/><circle cx="207" cy="288" r="14" fill="#eff6ff" stroke="#3b82f6" stroke-width="2"/><rect x="422" y="132" width="360" height="205" rx="18" class="card" filter="url(#s)"/><rect x="440" y="149" width="34" height="34" rx="9" fill="#2563eb"/><text x="457" y="173" text-anchor="middle" class="w" font-size="16" font-weight="800">2</text><text x="487" y="173" class="h" font-size="20">실시간 상태 수집</text><text x="442" y="204" class="m" font-size="11">Telemetry → Latest State</text><rect x="444" y="230" width="205" height="20" rx="6" fill="#f8fbff" stroke="#e4ecf8"/><text x="454" y="244" class="m" font-size="8">Soil Moisture</text><text x="637" y="244" text-anchor="end" class="t" font-size="8">24.6%</text><rect x="444" y="254" width="205" height="20" rx="6" fill="#f8fbff" stroke="#e4ecf8"/><text x="454" y="268" class="m" font-size="8">Pump Pressure</text><text x="637" y="268" text-anchor="end" class="t" font-size="8">4.2 bar</text><rect x="444" y="278" width="205" height="20" rx="6" fill="#f8fbff" stroke="#e4ecf8"/><text x="454" y="292" class="m" font-size="8">Valve Open</text><text x="637" y="292" text-anchor="end" class="t" font-size="8">62%</text><rect x="444" y="302" width="205" height="20" rx="6" fill="#f8fbff" stroke="#e4ecf8"/><text x="454" y="316" class="m" font-size="8">Camera</text><text x="637" y="316" text-anchor="end" class="t" font-size="8">ONLINE</text><rect x="673" y="247" width="80" height="62" rx="12" fill="#eff6ff" stroke="#93c5fd"/><text x="713" y="274" text-anchor="middle" class="b" font-size="10">REALTIME</text><text x="713" y="291" text-anchor="middle" class="m" font-size="8">UPDATE</text><rect x="809" y="132" width="360" height="205" rx="18" class="card" filter="url(#s)"/><rect x="827" y="149" width="34" height="34" rx="9" fill="#2563eb"/><text x="844" y="173" text-anchor="middle" class="w" font-size="16" font-weight="800">3</text><text x="874" y="173" class="h" font-size="20">대시보드와 차트</text><text x="829" y="204" class="m" font-size="11">KPI · Alarm · Trend</text><rect x="829" y="237" width="320" height="80" rx="10" class="dark"/><g class="w" font-size="15" font-weight="800"><text x="845" y="269">128</text><text x="920" y="269">7</text><text x="995" y="269">99.6%</text><text x="1085" y="269">3</text></g><path class="line" d="M839 306L884 294L929 300L974 277L1019 285L1064 266L1135 274"/><rect x="35" y="358" width="360" height="205" rx="18" class="card" filter="url(#s)"/><rect x="53" y="375" width="34" height="34" rx="9" fill="#2563eb"/><text x="70" y="399" text-anchor="middle" class="w" font-size="16" font-weight="800">4</text><text x="100" y="399" class="h" font-size="20">알람과 이상 감지</text><text x="55" y="430" class="m" font-size="11">Rule → Alarm → Incident</text><rect x="55" y="463" width="190" height="22" rx="7" fill="#f8fbff" stroke="#e4ecf8"/><text x="65" y="478" class="t" font-size="8">Pressure &gt; 4.0 bar</text><text x="235" y="478" text-anchor="end" class="m" font-size="7">2 min</text><rect x="55" y="491" width="190" height="22" rx="7" fill="#f8fbff" stroke="#e4ecf8"/><text x="65" y="506" class="t" font-size="8">Flow &lt; 10 m³/h</text><text x="235" y="506" text-anchor="end" class="m" font-size="7">3 min</text><rect x="55" y="519" width="190" height="22" rx="7" fill="#f8fbff" stroke="#e4ecf8"/><text x="65" y="534" class="t" font-size="8">Valve delta &gt; 20%</text><text x="235" y="534" text-anchor="end" class="m" font-size="7">1 min</text><rect x="264" y="466" width="109" height="80" rx="12" fill="#fff6f6" stroke="#fecaca"/><circle cx="285" cy="490" r="9" fill="#ef4444"/><text x="285" y="494" text-anchor="middle" class="w" font-size="10">!</text><text x="303" y="494" fill="#b91c1c" font-size="9" font-weight="800">Critical</text><text x="279" y="518" fill="#7f1d1d" font-size="8">Pump #2 · 4.2 bar</text><rect x="422" y="358" width="360" height="205" rx="18" class="card" filter="url(#s)"/><rect x="440" y="375" width="34" height="34" rx="9" fill="#2563eb"/><text x="457" y="399" text-anchor="middle" class="w" font-size="16" font-weight="800">5</text><text x="487" y="399" class="h" font-size="20">안전한 제어 워크플로우</text><text x="442" y="430" class="m" font-size="11">Request → Approve → Execute</text><circle cx="477" cy="497" r="18" fill="#f8fbff" stroke="#2563eb" stroke-width="2"/><text x="477" y="502" text-anchor="middle" fill="#2563eb" font-size="10" font-weight="800">1</text><text x="477" y="532" text-anchor="middle" class="t" font-size="8">Request</text><path d="M497 497H537" stroke="#93c5fd" stroke-width="2" stroke-dasharray="4 4"/><circle cx="557" cy="497" r="18" fill="#f8fbff" stroke="#22c55e" stroke-width="2"/><text x="557" y="502" text-anchor="middle" fill="#22c55e" font-size="10" font-weight="800">2</text><text x="557" y="532" text-anchor="middle" class="t" font-size="8">Approve</text><path d="M577 497H617" stroke="#93c5fd" stroke-width="2" stroke-dasharray="4 4"/><circle cx="637" cy="497" r="18" fill="#f8fbff" stroke="#2563eb" stroke-width="2"/><text x="637" y="502" text-anchor="middle" fill="#2563eb" font-size="10" font-weight="800">3</text><text x="637" y="532" text-anchor="middle" class="t" font-size="8">Execute</text><path d="M657 497H697" stroke="#93c5fd" stroke-width="2" stroke-dasharray="4 4"/><circle cx="717" cy="497" r="18" fill="#f8fbff" stroke="#22c55e" stroke-width="2"/><text x="717" y="502" text-anchor="middle" fill="#22c55e" font-size="10" font-weight="800">4</text><text x="717" y="532" text-anchor="middle" class="t" font-size="8">Verify</text><rect x="809" y="358" width="360" height="205" rx="18" class="card" filter="url(#s)"/><rect x="827" y="375" width="34" height="34" rx="9" fill="#2563eb"/><text x="844" y="399" text-anchor="middle" class="w" font-size="16" font-weight="800">6</text><text x="874" y="399" class="h" font-size="20">AI 보조 운영</text><text x="829" y="430" class="m" font-size="11">Summary · Recommendation</text><circle cx="889" cy="503" r="36" fill="#eef6ff" stroke="#93c5fd" stroke-width="2"/><circle cx="878" cy="497" r="5" fill="#08142d"/><circle cx="900" cy="497" r="5" fill="#08142d"/><path d="M876 514Q889 524 902 514" class="line"/><rect x="941" y="466" width="200" height="82" rx="10" fill="#f8fbff" stroke="#e4ecf8"/><text x="955" y="488" class="h" font-size="10">Operations Summary</text><text x="955" y="508" class="m" font-size="8">✓ 7 alarms · Critical 2</text><text x="955" y="524" class="m" font-size="8">✓ Pump #2 pressure anomaly</text><text x="955" y="540" class="m" font-size="8">✓ Valve #3 response delay</text><rect x="35" y="594" width="1130" height="55" rx="16" class="card" filter="url(#s)"/><g class="b" font-size="11"><text x="82" y="617">통합 운영</text><text x="362" y="617">실시간 가시성</text><text x="642" y="617">빠른 대응</text><text x="922" y="617">안전한 제어</text></g><g class="m" font-size="8"><text x="82" y="635">모든 장비와 데이터를 한 곳에서</text><text x="362" y="635">현재 상태와 변화 추이를 즉시 파악</text><text x="642" y="635">알람과 워크플로우로 신속한 조치</text><text x="922" y="635">승인 기반의 추적 가능한 제어</text></g></svg>